<?xml version="1.0" encoding="UTF-8"?>
<svg width="227px" height="72px" viewBox="0 0 227 72" version="1.1" xmlns="http://www.w3.org/2000/svg" xmlns:xlink="http://www.w3.org/1999/xlink">
    <!-- Generator: Sketch 52.2 (67145) - http://www.bohemiancoding.com/sketch -->
    <title>logo</title>
    <desc>Created with Sketch.</desc>
    <g id="Page-1" stroke="none" stroke-width="1" fill="none" fill-rule="evenodd">
        <g id="logo">
            <path d="M34.23,0 L0,12 L5.312,56.241 L34.23,72 L63.296,56.241 L68.46,12 L34.23,0 Z M50.312,48.723 L47.214,40.627 L42.493,40.771 C41.601396,42.2678388 40.5632987,43.6724022 39.394,44.964 C38.066,46.41 36.738,47.277 34.968,48 C33.05,48.867 31.427,49.301 28.623,49.301 C25.82,49.301 23.459,48.434 21.984,47.566 C20.509,46.699 19.181,45.686 18.148,44.241 C17.41,43.229 16.82,42.361 16.378,41.349 C16.23,40.771 15.788,39.759 15.788,39.614 C15.492,38.458 15.197,37.734 15.197,34.988 L15.197,20.241 L19.181,20.241 L19.181,34.988 C19.328,36 19.623,38.024 19.771,38.892 C19.918,39.47 19.918,39.614 20.213,40.337 C20.509,41.06 20.803,41.639 21.393,42.217 C22.132,43.084 22.869,43.807 23.903,44.386 C24.935,44.964 26.558,45.686 28.623,45.686 C32.017,45.686 34.378,44.096 36.443,42.361 C37.329,41.494 38.361,39.759 39.247,38.169 C39.394,37.735 39.837,36.867 39.837,36.867 L46.034,36.867 L41.46,24.867 L34.083,38.747 L30.099,38.747 L30.099,20.097 L34.083,20.097 L34.083,30.217 L39.394,20.097 L43.821,20.097 L54.591,48.723 L50.312,48.723 Z" id="Shape" fill="#9E61C8" fill-rule="nonzero" opacity="0.8"></path>
            <path d="M38.824,39 C38.959,38.55 39.364,37.65 39.364,37.65 L45.04,37.65 L40.85,25.2 L34.23,39.3 L34.23,45 C34.905,44.55 35.58,43.95 36.256,43.35 C37.066,42.45 38.012,40.65 38.823,39 L38.824,39 Z" id="Path" fill="#7149B0" opacity="0.4"></path>
            <path d="M34.23,0 L34.23,29.928 L39.394,20.096 L43.821,20.096 L54.591,48.723 L50.312,48.723 L47.214,40.627 L42.493,40.771 C41.601396,42.2678388 40.5632987,43.6724022 39.394,44.964 C38.066,46.41 36.738,47.277 34.968,48 C34.673,48.145 34.525,48.29 34.23,48.29 L34.23,72 L63.296,56.241 L68.46,12 L34.23,0 Z" id="Path" fill="#7149B0" opacity="0.7"></path>
            <path d="M82.873,21.512 C82.873,23.817 84.781,25.2 87.13,25.2 C89.772,25.2 91.828,23.51 92.268,20.744 L93.736,12.754 L91.68,12.754 L90.212,20.437 C89.772,22.127 88.744,23.049 87.129,23.049 C85.661,23.049 84.927,22.434 84.927,21.051 L84.927,20.437 L86.395,12.754 L84.34,12.754 L82.872,20.744 L82.872,21.512 L82.873,21.512 Z M94.176,25.046 L101.369,25.046 L101.809,23.049 L96.672,23.049 L98.58,12.754 L96.525,12.754 L94.176,25.046 Z M105.48,25.046 L107.535,25.046 L109.443,14.751 L113.407,14.751 L113.7,12.754 L104.012,12.754 L103.424,14.598 L107.094,14.598 L105.48,25.046 Z M112.966,25.046 L115.021,25.046 L117.223,12.754 L115.168,12.754 L112.966,25.046 Z M117.664,25.046 L119.719,25.046 L121.627,18.132 C121.774,17.21 122.067,16.134 122.067,16.134 C122.067,16.134 122.214,17.364 122.214,18.132 L123.242,22.895 L125.15,22.895 L127.793,18.132 C128.233,17.517 128.82,16.134 128.82,16.134 C128.82,16.134 128.673,17.21 128.38,18.132 L127.499,25.046 L129.554,25.046 L130.729,12.754 L128.527,12.754 L125.003,18.746 C124.563,19.361 124.123,20.436 124.123,20.436 C124.123,20.436 124.123,19.361 123.976,18.746 L122.802,12.754 L120.6,12.754 C120.453,12.754 117.664,25.046 117.664,25.046 Z M133.224,25.046 L134.839,21.82 L138.949,21.82 L139.389,25.046 L141.445,25.046 L139.536,12.754 L137.188,12.754 L131.022,25.046 L133.224,25.046 Z M135.72,19.976 L137.334,16.749 C137.774,16.134 138.215,14.751 138.215,14.751 C138.215,14.751 138.215,15.981 138.362,16.749 L138.802,19.976 L135.72,19.976 Z M145.115,25.046 L147.17,25.046 L149.078,14.751 L153.042,14.751 L153.482,12.754 L143.793,12.754 L143.353,14.751 L147.023,14.751 C147.023,14.598 145.115,25.046 145.115,25.046 Z M152.601,25.046 L159.794,25.046 L160.234,23.049 L155.097,23.049 L155.684,19.822 L159.647,19.822 L160.087,17.824 L156.124,17.824 L156.711,14.598 L161.702,14.598 L162.142,12.6 L154.803,12.6 C154.803,12.754 152.601,25.046 152.601,25.046 Z M92.05,53.556 L95.987,53.556 L88.696,32.551 L84.759,32.551 L77.469,53.556 L81.405,53.556 L83.155,48.231 L90.445,48.231 L92.05,53.556 Z M86.655,36.25 C86.655,36.25 87.092,38.321 87.53,39.505 L89.425,45.125 L84.03,45.125 L85.926,39.505 C86.217,38.321 86.655,36.25 86.655,36.25 Z M98.61,53.556 L102.402,53.556 L102.402,41.426 C102.402,40.243 102.256,38.172 102.256,38.172 C102.256,38.172 103.131,40.243 104.006,41.427 L111.88,53.557 L115.67,53.557 L115.67,32.55 L111.734,32.55 L111.734,44.68 C111.734,45.863 111.88,47.934 111.88,47.934 C111.88,47.934 111.005,45.864 110.13,44.68 L102.256,32.55 L98.61,32.55 L98.61,53.555 L98.61,53.556 Z M119.316,43.054 C119.316,49.71 123.982,54 129.523,54 C133.315,54 135.502,51.781 135.502,51.781 L135.502,53.704 L138.71,53.704 L138.71,42.61 L132.148,42.61 L132.148,45.864 L135.356,45.864 L135.356,48.379 C135.356,48.379 133.315,50.598 130.106,50.598 C126.17,50.598 123.107,47.639 123.107,43.054 C123.107,39.06 125.587,35.806 130.252,35.806 C133.606,35.806 135.793,37.876 135.793,37.876 L137.689,35.066 C137.689,35.066 135.064,32.403 129.961,32.403 C123.837,32.255 119.316,36.989 119.316,43.053 L119.316,43.054 Z M142.646,46.012 C142.646,50.746 146,53.852 150.958,53.852 C155.916,53.852 159.27,50.598 159.27,46.012 L159.27,32.552 L155.478,32.552 L155.478,46.012 C155.478,48.822 153.583,50.45 150.812,50.45 C148.042,50.45 146.292,48.823 146.292,46.012 L146.292,32.552 L142.501,32.552 L142.647,46.012 C142.501,46.012 142.647,46.012 142.647,46.012 L142.646,46.012 Z M164.227,53.556 L176.913,53.556 L176.913,50.302 L168.019,50.302 L168.019,32.552 L164.227,32.552 L164.227,53.556 Z M192.078,53.556 L196.015,53.556 L188.725,32.551 L184.642,32.551 L177.351,53.556 L181.288,53.556 L183.038,48.231 L190.328,48.231 L192.078,53.556 Z M186.683,36.249 C186.683,36.249 187.12,38.32 187.558,39.504 L189.453,45.124 L184.058,45.124 L185.954,39.504 C186.246,38.32 186.683,36.249 186.683,36.249 Z M198.64,53.556 L202.431,53.556 L202.431,45.716 L206.076,45.716 L210.159,53.556 L214.388,53.556 L210.159,45.716 C209.722,44.976 209.43,44.681 209.43,44.681 C211.617,43.793 212.93,41.427 212.93,38.911 C212.93,36.101 211.617,34.178 209.576,33.143 C208.701,32.699 207.68,32.551 205.347,32.551 L198.64,32.551 L198.64,53.556 Z M202.285,42.462 L202.285,35.954 L205.202,35.954 C208.118,35.954 208.992,37.137 208.992,39.208 C208.992,41.278 207.68,42.462 205.785,42.462 L202.285,42.462 Z M216.19,33.326 L216.19,32.4 L220.633,32.4 L220.633,33.326 L219.003,33.326 L219.003,37.8 L217.967,37.8 L217.967,33.326 L216.19,33.326 Z M222.854,32.4 L224.187,36.257 L225.519,32.4 L227,32.4 L227,37.8 L226.112,37.8 L226.112,33.48 L224.631,37.8 L223.891,37.8 L222.41,33.48 L222.41,37.8 L221.521,37.8 L221.521,32.4 L222.854,32.4 Z" id="Shape" fill="#9E61C8" fill-rule="nonzero"></path>
        </g>
    </g>
</svg>